<mxfile host="app.diagrams.net" modified="2021-07-06T16:02:26.229Z" agent="5.0 (Windows)" etag="9gc_i31BYOHUmmYKyyzA" version="14.7.6" type="github">
  <diagram id="zpEDSjzosJDliBePStET" name="Page-1">
    <mxGraphModel dx="785" dy="569" grid="1" gridSize="10" guides="1" tooltips="1" connect="1" arrows="1" fold="1" page="1" pageScale="1" pageWidth="827" pageHeight="1169" math="0" shadow="0">
      <root>
        <mxCell id="0" />
        <mxCell id="1" parent="0" />
        <mxCell id="YqspJod9Bear6XmAUySt-1" value="Task" style="swimlane;fontStyle=1;align=center;verticalAlign=top;childLayout=stackLayout;horizontal=1;startSize=26;horizontalStack=0;resizeParent=1;resizeParentMax=0;resizeLast=0;collapsible=1;marginBottom=0;" vertex="1" parent="1">
          <mxGeometry x="329" y="10" width="170" height="200" as="geometry" />
        </mxCell>
        <mxCell id="YqspJod9Bear6XmAUySt-2" value="+ title: String&#xa;+ ID: int&#xa;+ notificationType: Notification&#xa;&#xa;" style="text;strokeColor=none;fillColor=none;align=left;verticalAlign=top;spacingLeft=4;spacingRight=4;overflow=hidden;rotatable=0;points=[[0,0.5],[1,0.5]];portConstraint=eastwest;" vertex="1" parent="YqspJod9Bear6XmAUySt-1">
          <mxGeometry y="26" width="170" height="54" as="geometry" />
        </mxCell>
        <mxCell id="YqspJod9Bear6XmAUySt-3" value="" style="line;strokeWidth=1;fillColor=none;align=left;verticalAlign=middle;spacingTop=-1;spacingLeft=3;spacingRight=3;rotatable=0;labelPosition=right;points=[];portConstraint=eastwest;" vertex="1" parent="YqspJod9Bear6XmAUySt-1">
          <mxGeometry y="80" width="170" height="8" as="geometry" />
        </mxCell>
        <mxCell id="YqspJod9Bear6XmAUySt-4" value="+ compareTo(Task): int&#xa;+ setTitle(String): void&#xa;+ getTitle(): String&#xa;+ taskInfo(): void&#xa;+ getID(): int&#xa;+ setID(int): void&#xa;+ getType(): String" style="text;strokeColor=none;fillColor=none;align=left;verticalAlign=top;spacingLeft=4;spacingRight=4;overflow=hidden;rotatable=0;points=[[0,0.5],[1,0.5]];portConstraint=eastwest;" vertex="1" parent="YqspJod9Bear6XmAUySt-1">
          <mxGeometry y="88" width="170" height="112" as="geometry" />
        </mxCell>
        <mxCell id="YqspJod9Bear6XmAUySt-5" value="BasicTask" style="swimlane;fontStyle=1;align=center;verticalAlign=top;childLayout=stackLayout;horizontal=1;startSize=26;horizontalStack=0;resizeParent=1;resizeParentMax=0;resizeLast=0;collapsible=1;marginBottom=0;" vertex="1" parent="1">
          <mxGeometry x="140" y="250" width="160" height="120" as="geometry" />
        </mxCell>
        <mxCell id="YqspJod9Bear6XmAUySt-6" value="+ notes: String" style="text;strokeColor=none;fillColor=none;align=left;verticalAlign=top;spacingLeft=4;spacingRight=4;overflow=hidden;rotatable=0;points=[[0,0.5],[1,0.5]];portConstraint=eastwest;" vertex="1" parent="YqspJod9Bear6XmAUySt-5">
          <mxGeometry y="26" width="160" height="26" as="geometry" />
        </mxCell>
        <mxCell id="YqspJod9Bear6XmAUySt-7" value="" style="line;strokeWidth=1;fillColor=none;align=left;verticalAlign=middle;spacingTop=-1;spacingLeft=3;spacingRight=3;rotatable=0;labelPosition=right;points=[];portConstraint=eastwest;" vertex="1" parent="YqspJod9Bear6XmAUySt-5">
          <mxGeometry y="52" width="160" height="8" as="geometry" />
        </mxCell>
        <mxCell id="YqspJod9Bear6XmAUySt-8" value="+ setNotes(String): void&#xa;+ getNotes(): String&#xa;+ getType(): String&#xa;" style="text;strokeColor=none;fillColor=none;align=left;verticalAlign=top;spacingLeft=4;spacingRight=4;overflow=hidden;rotatable=0;points=[[0,0.5],[1,0.5]];portConstraint=eastwest;" vertex="1" parent="YqspJod9Bear6XmAUySt-5">
          <mxGeometry y="60" width="160" height="60" as="geometry" />
        </mxCell>
        <mxCell id="YqspJod9Bear6XmAUySt-9" value="ListTask" style="swimlane;fontStyle=1;align=center;verticalAlign=top;childLayout=stackLayout;horizontal=1;startSize=26;horizontalStack=0;resizeParent=1;resizeParentMax=0;resizeLast=0;collapsible=1;marginBottom=0;" vertex="1" parent="1">
          <mxGeometry x="333" y="250" width="160" height="150" as="geometry" />
        </mxCell>
        <mxCell id="YqspJod9Bear6XmAUySt-10" value="+ listItems[]: ListItem[]" style="text;strokeColor=none;fillColor=none;align=left;verticalAlign=top;spacingLeft=4;spacingRight=4;overflow=hidden;rotatable=0;points=[[0,0.5],[1,0.5]];portConstraint=eastwest;" vertex="1" parent="YqspJod9Bear6XmAUySt-9">
          <mxGeometry y="26" width="160" height="26" as="geometry" />
        </mxCell>
        <mxCell id="YqspJod9Bear6XmAUySt-11" value="" style="line;strokeWidth=1;fillColor=none;align=left;verticalAlign=middle;spacingTop=-1;spacingLeft=3;spacingRight=3;rotatable=0;labelPosition=right;points=[];portConstraint=eastwest;" vertex="1" parent="YqspJod9Bear6XmAUySt-9">
          <mxGeometry y="52" width="160" height="8" as="geometry" />
        </mxCell>
        <mxCell id="YqspJod9Bear6XmAUySt-12" value="+ getItems(): ListItem[]&#xa;+ getLength(): int&#xa;+ addItem(ListItem): void&#xa;+ getType(): String&#xa;+ getNotes(): String&#xa;" style="text;strokeColor=none;fillColor=none;align=left;verticalAlign=top;spacingLeft=4;spacingRight=4;overflow=hidden;rotatable=0;points=[[0,0.5],[1,0.5]];portConstraint=eastwest;" vertex="1" parent="YqspJod9Bear6XmAUySt-9">
          <mxGeometry y="60" width="160" height="90" as="geometry" />
        </mxCell>
        <mxCell id="YqspJod9Bear6XmAUySt-13" value="ListItem" style="swimlane;fontStyle=1;align=center;verticalAlign=top;childLayout=stackLayout;horizontal=1;startSize=26;horizontalStack=0;resizeParent=1;resizeParentMax=0;resizeLast=0;collapsible=1;marginBottom=0;" vertex="1" parent="1">
          <mxGeometry x="328" y="460" width="170" height="170" as="geometry" />
        </mxCell>
        <mxCell id="YqspJod9Bear6XmAUySt-14" value="+ checked: boolean&#xa;+ name: String&#xa;" style="text;strokeColor=none;fillColor=none;align=left;verticalAlign=top;spacingLeft=4;spacingRight=4;overflow=hidden;rotatable=0;points=[[0,0.5],[1,0.5]];portConstraint=eastwest;" vertex="1" parent="YqspJod9Bear6XmAUySt-13">
          <mxGeometry y="26" width="170" height="44" as="geometry" />
        </mxCell>
        <mxCell id="YqspJod9Bear6XmAUySt-15" value="" style="line;strokeWidth=1;fillColor=none;align=left;verticalAlign=middle;spacingTop=-1;spacingLeft=3;spacingRight=3;rotatable=0;labelPosition=right;points=[];portConstraint=eastwest;" vertex="1" parent="YqspJod9Bear6XmAUySt-13">
          <mxGeometry y="70" width="170" height="8" as="geometry" />
        </mxCell>
        <mxCell id="YqspJod9Bear6XmAUySt-16" value="+ isChecked(): boolean&#xa;+ toggleCheck(): void&#xa;+ setChecked(boolean): void&#xa;+ setName(String): void&#xa;+ getName(): String&#xa;+ compareTo(ListItem): int" style="text;strokeColor=none;fillColor=none;align=left;verticalAlign=top;spacingLeft=4;spacingRight=4;overflow=hidden;rotatable=0;points=[[0,0.5],[1,0.5]];portConstraint=eastwest;" vertex="1" parent="YqspJod9Bear6XmAUySt-13">
          <mxGeometry y="78" width="170" height="92" as="geometry" />
        </mxCell>
        <mxCell id="YqspJod9Bear6XmAUySt-17" value="ScheduledTask" style="swimlane;fontStyle=1;align=center;verticalAlign=top;childLayout=stackLayout;horizontal=1;startSize=26;horizontalStack=0;resizeParent=1;resizeParentMax=0;resizeLast=0;collapsible=1;marginBottom=0;" vertex="1" parent="1">
          <mxGeometry x="530" y="250" width="190" height="270" as="geometry" />
        </mxCell>
        <mxCell id="YqspJod9Bear6XmAUySt-18" value="+ notes: String&#xa;+ deadline: LocalDateTime&#xa;+ notificationType: Notification&#xa;&#xa;" style="text;strokeColor=none;fillColor=none;align=left;verticalAlign=top;spacingLeft=4;spacingRight=4;overflow=hidden;rotatable=0;points=[[0,0.5],[1,0.5]];portConstraint=eastwest;" vertex="1" parent="YqspJod9Bear6XmAUySt-17">
          <mxGeometry y="26" width="190" height="44" as="geometry" />
        </mxCell>
        <mxCell id="YqspJod9Bear6XmAUySt-19" value="" style="line;strokeWidth=1;fillColor=none;align=left;verticalAlign=middle;spacingTop=-1;spacingLeft=3;spacingRight=3;rotatable=0;labelPosition=right;points=[];portConstraint=eastwest;" vertex="1" parent="YqspJod9Bear6XmAUySt-17">
          <mxGeometry y="70" width="190" height="40" as="geometry" />
        </mxCell>
        <mxCell id="YqspJod9Bear6XmAUySt-20" value="+ remind(Context): void&#xa;+ cancel(Context): void&#xa;+ setNotes(String): void&#xa;+ setDeadline(LocalDateTime): void&#xa;+ setNotificationType(String): void&#xa;+ getNotes(): String&#xa;+ getTime(): LocalDateTime&#xa;+ getType(): String&#xa;+ getNotification(): Notification&#xa;" style="text;strokeColor=none;fillColor=none;align=left;verticalAlign=top;spacingLeft=4;spacingRight=4;overflow=hidden;rotatable=0;points=[[0,0.5],[1,0.5]];portConstraint=eastwest;" vertex="1" parent="YqspJod9Bear6XmAUySt-17">
          <mxGeometry y="110" width="190" height="160" as="geometry" />
        </mxCell>
        <mxCell id="YqspJod9Bear6XmAUySt-21" value="" style="endArrow=diamondThin;endFill=1;endSize=24;html=1;entryX=0.5;entryY=0;entryDx=0;entryDy=0;" edge="1" parent="1" target="YqspJod9Bear6XmAUySt-13">
          <mxGeometry width="160" relative="1" as="geometry">
            <mxPoint x="413" y="402" as="sourcePoint" />
            <mxPoint x="540" y="300" as="targetPoint" />
          </mxGeometry>
        </mxCell>
        <mxCell id="YqspJod9Bear6XmAUySt-22" value="" style="endArrow=block;endFill=0;html=1;edgeStyle=orthogonalEdgeStyle;align=left;verticalAlign=top;jumpSize=7;strokeWidth=1;targetPerimeterSpacing=0;arcSize=23;endSize=12;startSize=12;entryX=0;entryY=0.5;entryDx=0;entryDy=0;exitX=0.5;exitY=0;exitDx=0;exitDy=0;" edge="1" parent="1" source="YqspJod9Bear6XmAUySt-5" target="YqspJod9Bear6XmAUySt-4">
          <mxGeometry x="-1" relative="1" as="geometry">
            <mxPoint x="130" y="140" as="sourcePoint" />
            <mxPoint x="290" y="140" as="targetPoint" />
          </mxGeometry>
        </mxCell>
        <mxCell id="YqspJod9Bear6XmAUySt-24" value="" style="endArrow=block;endFill=0;html=1;edgeStyle=orthogonalEdgeStyle;align=left;verticalAlign=top;jumpSize=7;strokeWidth=1;targetPerimeterSpacing=0;arcSize=23;endSize=12;startSize=12;exitX=0.5;exitY=0;exitDx=0;exitDy=0;" edge="1" parent="1" source="YqspJod9Bear6XmAUySt-9">
          <mxGeometry x="-1" relative="1" as="geometry">
            <mxPoint x="320" y="225" as="sourcePoint" />
            <mxPoint x="412" y="209" as="targetPoint" />
          </mxGeometry>
        </mxCell>
        <mxCell id="YqspJod9Bear6XmAUySt-25" value="" style="endArrow=block;endFill=0;html=1;edgeStyle=orthogonalEdgeStyle;align=left;verticalAlign=top;jumpSize=7;strokeWidth=1;targetPerimeterSpacing=0;arcSize=23;endSize=12;startSize=12;entryX=1;entryY=0.5;entryDx=0;entryDy=0;exitX=0.5;exitY=0;exitDx=0;exitDy=0;" edge="1" parent="1" source="YqspJod9Bear6XmAUySt-17" target="YqspJod9Bear6XmAUySt-4">
          <mxGeometry x="-1" relative="1" as="geometry">
            <mxPoint x="580" y="150" as="sourcePoint" />
            <mxPoint x="740" y="150" as="targetPoint" />
          </mxGeometry>
        </mxCell>
      </root>
    </mxGraphModel>
  </diagram>
</mxfile>
